<?xml version="1.0" encoding="utf-8"?>
<!-- Generator: Adobe Illustrator 19.1.0, SVG Export Plug-In . SVG Version: 6.00 Build 0)  -->
<svg version="1.1" id="Layer_1" xmlns="http://www.w3.org/2000/svg" xmlns:xlink="http://www.w3.org/1999/xlink" x="0px" y="0px"
	 width="502px" height="138px" viewBox="0 0 502 138" style="enable-background:new 0 0 502 138;" xml:space="preserve">
<style type="text/css">
	.st0{fill:#FFFFFF;}
</style>
<g>
	<g>
		<g>
			<path class="st0" d="M12.9,12.5h54.2l3.1,14.1h-3.1c-2.2-3.7-4.5-6.4-6.9-8.1c-2.4-1.7-4.6-2.7-6.8-3.1c-2.1-0.3-4.9-0.5-8.3-0.6
				v48.5c0,1.9,0.3,3.3,0.9,4.3c0.6,1,1.6,1.7,2.9,2c1.4,0.4,3.3,0.6,5.7,0.7v2.3H24.8v-2.3c2.5-0.1,4.4-0.2,5.7-0.6
				c1.3-0.3,2.3-1,3-2c0.7-1,1-2.7,1-4.9v-48c-3.1,0-5.7,0.3-8,0.9c-2.3,0.6-4.2,1.4-5.7,2.4c-1.5,1-2.8,2.1-3.8,3.2
				c-1,1.1-2.5,2.9-4.5,5.3H9.9L12.9,12.5z M20.8,14.9h-6.9l-1.7,7.2c1.4-1.9,2.7-3.3,3.8-4.2C17.1,17,18.7,16,20.8,14.9z
				 M38.6,61.9V20c0-1.7-0.2-2.9-0.6-3.7c-0.4-0.8-1.1-1.3-2.2-1.4v48.5c0,1.8-0.2,3.2-0.6,4.2c-0.4,1.1-1.2,2-2.4,2.8h0.9
				c2.1,0,3.4-0.7,4-2C38.3,67.1,38.6,64.9,38.6,61.9z M65.3,21.7l-1.9-6.8h-8c2.2,0.7,4,1.6,5.4,2.6C62.2,18.6,63.7,20,65.3,21.7z"
				/>
			<path class="st0" d="M60.4,54.4c0-3.6,0.9-7,2.6-10c1.7-3,4.1-5.4,7-7.1c3-1.7,6.3-2.6,9.9-2.6c3.5,0,6.7,0.8,9.7,2.5
				c2.9,1.7,5.2,4,6.9,6.9c1.7,3,2.5,6.2,2.5,9.9c0,2.8-0.5,5.4-1.5,7.8c-1,2.5-2.4,4.6-4.2,6.4c-1.8,1.8-3.8,3.1-6.1,4.1
				c-2.3,1-4.8,1.4-7.4,1.4c-3.5,0-6.8-0.8-9.7-2.4c-2.9-1.6-5.3-3.9-7-6.8C61.3,61.5,60.4,58.2,60.4,54.4z M75.6,72.1
				c-3.7-2.3-6.5-4.9-8.3-8c-1.8-3.1-2.8-6.4-2.8-10.1c0-2.8,0.4-5.2,1.3-7.3c0.9-2.1,2-3.9,3.5-5.4c1.4-1.5,3.2-3.1,5.4-4.7
				c-2.9,1-5.3,2.5-7.2,4.3c-1.9,1.8-3.4,4-4.3,6.3c-0.9,2.4-1.4,4.9-1.4,7.5c0,1.9,0.3,3.8,0.9,5.7c0.6,1.9,1.5,3.6,2.6,5.1
				c1.1,1.5,2.6,2.8,4.3,4C71.3,70.6,73.3,71.5,75.6,72.1z M71,51.9c0,6.1,0.9,10.8,2.6,14.3c1.8,3.5,4.1,5.2,6.9,5.2
				c1.4,0,2.7-0.6,4-1.8c1.2-1.2,2.2-2.9,2.9-5.2c0.7-2.3,1.1-5.2,1.1-8.5c0-5.9-0.8-10.5-2.4-13.8c-1.6-3.3-3.8-5-6.5-5
				c-2.7,0-4.8,1.2-6.3,3.7C71.7,43.3,71,47,71,51.9z M86,69.9c2.1-1.2,3.8-3,4.9-5.5c1.1-2.5,1.7-5.6,1.7-9.3
				c0-9-2.8-14.9-8.4-17.7c2,2,3.4,4.4,4.3,7.3c0.9,2.9,1.3,6.8,1.3,11.7c0,3.1-0.3,5.7-1,7.8C88.3,66.2,87.3,68.1,86,69.9z"/>
			<path class="st0" d="M113.9,39.7c0,0.1,0.2,0.5,0.6,1.2c0.4,0.7,0.6,1.4,0.6,2c0,1.2-0.5,2.3-1.5,3.3c-1,1-2.3,1.4-3.8,1.4
				c-1.5,0-2.6-0.4-3.5-1.1c-0.9-0.8-1.3-1.6-1.3-2.6c0-1.5,0.7-2.9,2.2-4.3c1.4-1.4,3.4-2.6,5.9-3.5c2.5-0.9,5.3-1.3,8.3-1.3
				c2.2,0,4.3,0.4,6.2,1.2c1.9,0.8,3.4,1.9,4.6,3.5c1.1,1.6,1.7,3.5,1.7,5.7v21.7c0,1.7,0.5,2.6,1.5,2.6c0.6,0,1.3-0.5,2.2-1.4
				l1.6,1.8c-1.4,1.4-2.7,2.4-3.9,3.2c-1.2,0.7-2.6,1.1-4.2,1.1c-1.9,0-3.3-0.4-4.4-1.3c-1.1-0.8-1.8-2.1-2.2-3.9
				c-3.9,3.4-7.8,5.1-11.6,5.1c-2.7,0-4.9-0.7-6.5-2.1c-1.6-1.4-2.4-3.2-2.4-5.4c0-2,0.5-3.6,1.5-5c1-1.4,2.3-2.6,3.9-3.7
				c1.6-1.1,4-2.4,7.1-4.1c3.1-1.6,5.7-3,7.7-4.2v-6.4c0-1.9-0.4-3.4-1.3-4.4c-0.9-1-2.2-1.5-4-1.5c-1.5,0-2.7,0.3-3.6,0.8
				C114.3,38.4,113.9,39,113.9,39.7z M116.6,71.8c-2.6,0-4.7-0.5-6.2-1.6c-1.6-1.1-2.3-2.6-2.3-4.6c0-1.5,0.4-2.8,1.1-4.1
				c0.8-1.3,1.9-2.7,3.4-4.3c-2.3,1.3-4.1,2.7-5.4,4.1c-1.3,1.4-1.9,3-1.9,4.9c0,1.7,0.8,3.2,2.3,4.3c1.5,1.2,3.2,1.7,5,1.7
				C114.3,72.4,115.6,72.2,116.6,71.8z M112.6,44.9c-1,0.1-1.8-0.1-2.3-0.6c-0.5-0.5-0.8-1.1-0.8-1.7c0-0.9,0.2-1.7,0.7-2.4
				c0.5-0.7,1.3-1.7,2.5-3c-2,1-3.6,2-4.6,3.1c-1.1,1-1.6,2.2-1.6,3.5c0,0.6,0.3,1.1,0.9,1.6c0.6,0.5,1.3,0.7,2.1,0.7
				C110.7,46.1,111.8,45.7,112.6,44.9z M124.1,66V52.3c-3.6,2-6.2,3.9-7.6,5.5c-1.4,1.6-2.2,3.6-2.2,6c0,1.6,0.4,2.8,1.3,3.6
				c0.9,0.9,1.8,1.3,3,1.3C120.4,68.7,122.2,67.8,124.1,66z M125.5,45.7v16.8c0,3.3,0.4,5.8,1.1,7.4c0.7,1.6,2.1,2.5,4.2,2.5
				c0.9,0,1.7-0.1,2.3-0.3c-1.7-0.3-2.9-0.9-3.6-2c-0.7-1.1-1.1-2.8-1.1-5.2V45.3c0-3-0.4-5-1.3-6.1c-0.8-1.1-2.3-1.8-4.3-2
				c1.1,0.6,1.8,1.4,2.2,2.5C125.3,40.7,125.5,42.7,125.5,45.7z"/>
			<path class="st0" d="M167.1,16.2l13.2-4.3h1.7V65c0,1.5,0.4,2.5,1.2,3.1c0.8,0.5,2.2,0.8,4.2,0.8v2.3l-15.1,2.7v-5
				c-4.1,3.3-8.3,5-12.5,5c-2.4,0-4.6-0.5-6.6-1.5c-2-1-3.8-2.4-5.3-4.2c-1.5-1.8-2.6-3.9-3.4-6.2c-0.8-2.3-1.2-4.8-1.2-7.4
				c0-3.7,0.9-7.1,2.7-10.1c1.8-3,4.2-5.4,7.2-7.1c3-1.7,6.4-2.6,10.1-2.6c2.6,0,5.6,0.6,9,1.8V26.1c0-2.3-0.3-4-0.9-5.1
				c-0.6-1.1-2-2.1-4.3-3V16.2z M158.9,36.7c-2.4,0.5-4.4,1.3-6,2.4c-2.5,1.5-4.4,3.7-5.9,6.6c-1.5,2.9-2.2,5.9-2.2,9.2
				c0,3.1,0.6,6,1.9,8.7c1.3,2.7,3.1,4.8,5.5,6.4c2.4,1.6,5,2.4,7.9,2.4c2,0,3.8-0.3,5.3-0.9c-1.3,0.1-2.1,0.2-2.5,0.2
				c-1.9,0-3.7-0.4-5.6-1.2c-1.8-0.8-3.5-1.9-5-3.4c-1.5-1.5-2.7-3.3-3.6-5.3c-0.9-2.1-1.3-4.3-1.3-6.8
				C147.4,47.4,151.2,41.3,158.9,36.7z M172.3,65.8v-25c-1-1.2-2.2-2.1-3.5-2.8c-1.3-0.7-2.7-1-4-1c-2,0-3.9,0.6-5.6,1.9
				c-1.7,1.2-3,3.1-4,5.6c-1,2.5-1.5,5.6-1.5,9.3c0,3.1,0.4,5.8,1.3,8.1c0.9,2.3,2.1,4,3.7,5.2c1.6,1.2,3.4,1.8,5.5,1.8
				C167.1,68.9,169.8,67.8,172.3,65.8z M170.5,17.4H169c2.1,0.9,3.4,2,3.9,3c0.5,1.1,0.7,2.6,0.7,4.4v46.9c0.9-0.4,1.6-0.9,2.1-1.4
				c0.4-0.5,0.7-1.3,0.7-2.4v-43c0-2.6-0.4-4.4-1.2-5.7C174.5,18,172.9,17.4,170.5,17.4z"/>
		</g>
		<g>
			<path class="st0" d="M274.5,12.6h54.2l3.1,14.1h-3.1c-2.2-3.7-4.5-6.4-6.9-8.1c-2.4-1.7-4.6-2.7-6.7-3.1
				c-2.1-0.3-4.9-0.5-8.3-0.6v48.5c0,1.9,0.3,3.3,0.9,4.3c0.6,1,1.6,1.7,2.9,2c1.4,0.4,3.3,0.6,5.7,0.7v2.3h-29.9v-2.3
				c2.5-0.1,4.4-0.2,5.7-0.6c1.3-0.3,2.3-1,3-2c0.7-1,1-2.7,1-4.9V15c-3.1,0-5.7,0.3-8,0.9c-2.3,0.6-4.2,1.4-5.7,2.4
				c-1.5,1-2.8,2.1-3.8,3.2c-1,1.1-2.5,2.9-4.5,5.3h-2.6L274.5,12.6z M282.4,15h-6.9l-1.7,7.3c1.5-1.9,2.7-3.3,3.8-4.2
				C278.7,17,280.3,16,282.4,15z M300.3,61.9V20c0-1.6-0.2-2.9-0.6-3.7c-0.4-0.8-1.1-1.3-2.2-1.4v48.5c0,1.8-0.2,3.2-0.6,4.2
				c-0.4,1.1-1.2,2-2.4,2.8h0.9c2.1,0,3.4-0.7,4-2C300,67.2,300.3,65,300.3,61.9z M327,21.8L325,15h-8c2.2,0.7,4,1.6,5.4,2.6
				C323.9,18.7,325.4,20.1,327,21.8z"/>
			<path class="st0" d="M346.7,38v-2.5H362v29c0,1.2,0.2,2,0.6,2.6c0.4,0.6,1,0.9,1.7,1.1c0.8,0.2,1.8,0.3,3,0.3h0.4v2.4l-15.6,3V68
				c-4.7,3.9-9.4,5.9-14,5.9c-3.6,0-6.5-1.1-8.7-3.2c-2.2-2.2-3.2-5.2-3.2-9.2V46.7c0-2.2-0.1-3.8-0.2-4.7c-0.1-0.9-0.6-1.7-1.4-2.4
				c-0.8-0.7-2.2-1.2-4.1-1.5v-2.5h15.6v25.2c0,2.2,0.2,3.9,0.6,5.2c0.4,1.3,1,2.3,1.9,3c0.9,0.7,2.1,1,3.5,1
				c3.2,0,6.5-1.6,10.1-4.7V44.8C352.2,40.5,350.4,38.3,346.7,38z M330.6,62.4V43.2c0-3.6-1.4-5.3-4.2-5.3c-0.1,0-0.3,0-0.7,0.1
				c-0.4,0.1-0.7,0.1-0.8,0.1c1.2,0.9,2,1.9,2.3,2.9c0.3,1.1,0.5,2.4,0.5,4v15.8c0,3.8,0.9,6.7,2.7,8.8c1.8,2.1,4.3,3.2,7.4,3.2
				c0.9,0,1.8-0.1,2.6-0.2c-3.2-0.3-5.7-1.3-7.4-3C331.4,67.8,330.6,65.4,330.6,62.4z M356.4,67.3V44.4c0-2-0.3-3.6-0.8-4.8
				c-0.5-1.2-1.7-1.8-3.5-1.8c-0.1,0-0.3,0-0.6,0.1c-0.4,0.1-0.6,0.1-0.7,0.1c1.1,0.7,1.9,1.6,2.3,2.7c0.4,1.1,0.6,2.4,0.6,4.1v27
				c1-0.3,1.7-0.8,2.1-1.5C356.2,69.6,356.4,68.6,356.4,67.3z"/>
			<path class="st0" d="M387.3,34.8v6.6c2.2-2.5,3.9-4.2,5-5.1c1.2-1,2.6-1.4,4.2-1.4c1.4,0,2.6,0.5,3.6,1.5c1,1,1.5,2.3,1.5,3.8
				c0,1.6-0.4,2.9-1.3,4c-0.9,1.1-2,1.6-3.3,1.6c-0.6,0-1.3-0.1-2-0.3c-0.7-0.2-1.3-0.5-1.8-0.9c-0.3-0.2-0.6-0.5-0.9-0.7
				c-0.3-0.3-0.6-0.5-0.8-0.6c-0.2-0.1-0.5-0.2-0.8-0.2c-0.5,0-1.1,0.2-1.6,0.6c-0.5,0.4-1.1,1-1.8,1.7v20.6c0,1.5,0.2,2.5,0.6,3.2
				c0.4,0.6,1,1,1.9,1.2c0.9,0.2,2.4,0.2,4.5,0.2v2.3h-22.9v-2.3h1.2c3.3,0,4.9-1.3,4.9-3.9V47.4c0-3.3-2-5.5-6.1-6.7v-1.5l13.7-4.4
				H387.3z M378.9,47.4v19.4c0,1-0.2,1.7-0.5,2.2c-0.3,0.5-0.8,1-1.4,1.5c1.6-0.1,2.8-0.6,3.5-1.3c0.7-0.7,1.1-2,1.1-3.8v-18
				c0-2.4-0.4-4.2-1.3-5.3c-0.9-1.1-2.2-1.7-4.1-1.7c-0.1,0-0.5,0-0.9,0.1c-0.5,0.1-0.8,0.1-1,0.1C377.4,41.8,378.9,44.1,378.9,47.4
				z M390.1,41.3c0.8,0,1.5,0.3,2.3,0.8c1.8,1.4,3.2,2.1,4.4,2.1c1.5,0,2.6-1,3.2-2.9c-0.8,0.4-1.4,0.6-1.7,0.6
				c-0.9,0-1.7-0.3-2.6-0.9c-1.1-0.9-2-1.3-2.7-1.3C392.4,39.8,391.4,40.3,390.1,41.3z"/>
			<path class="st0" d="M409,62.5V38.2h-4.6V36c2.5-1.9,4.4-3.3,5.6-4.3c1.3-1,2.4-2.1,3.6-3.4c1.1-1.3,2.1-2.6,2.9-3.9h2.3v11.1
				h10.6v2.7h-10.6v25.5c0,1.9,0.2,3.3,0.7,4.2c0.5,0.9,1.2,1.4,2.3,1.4c1,0,2-0.3,2.8-0.9c0.9-0.6,1.9-1.4,3.2-2.6l1.6,1.7
				c-2.1,2.2-4.1,3.8-5.9,4.9c-1.8,1.1-3.8,1.6-6.1,1.6c-2.2,0-3.9-0.5-5.1-1.4c-1.2-1-2.1-2.3-2.5-3.9
				C409.2,66.9,409,64.8,409,62.5z M413.2,30.9l-2.8,2.3v28.3c0,3.8,0.5,6.5,1.5,8.2c1,1.7,2.7,2.6,5.3,2.6c1.3,0,2.7-0.2,4-0.6
				c-2.6,0.1-4.6-0.5-5.9-1.8c-1.4-1.3-2-3.4-2-6.5V30.9z"/>
			<path class="st0" d="M437.8,66.1V25.7c0-2.2-0.3-3.9-1-5.1c-0.7-1.2-2.3-2.3-4.7-3.2v-1.7l13.9-4.6h1.7v53.3
				c0,2.2,0.2,3.8,0.7,4.6c0.5,0.9,1.8,1.3,3.8,1.3h1.1v2.3h-21.2v-2.3h1c1.7,0,2.9-0.4,3.6-1.1C437.4,68.6,437.8,67.6,437.8,66.1z
				 M442,64.4V26c0-2-0.1-3.6-0.3-4.8c-0.2-1.2-0.7-2.2-1.6-3c-0.9-0.8-2.3-1.2-4.2-1.2c-0.9,0-1.7,0-2.3,0.1
				c2.6,0.7,4.2,1.8,4.7,3.3c0.5,1.4,0.8,3.4,0.8,5.7v39.9c0,1.9-0.6,3.5-1.8,4.6c2-0.1,3.2-0.6,3.8-1.6
				C441.7,67.8,442,66.3,442,64.4z"/>
			<path class="st0" d="M489.7,62.2l1.7,1.3c-1.3,2.4-2.8,4.3-4.6,5.9c-1.8,1.5-3.7,2.7-5.8,3.4c-2.1,0.7-4.3,1.1-6.6,1.1
				c-3.1,0-6-0.8-8.7-2.3c-2.7-1.5-4.8-3.7-6.4-6.5c-1.6-2.8-2.3-6.1-2.3-9.7c0-2.8,0.5-5.5,1.4-8c1-2.5,2.3-4.7,4-6.6
				c1.7-1.9,3.7-3.4,5.9-4.5c2.2-1.1,4.6-1.6,7.1-1.6c2.6,0,5,0.5,7.3,1.6c2.3,1.1,4.2,2.5,5.5,4.4c1,1.4,1.7,2.8,2.1,4.2
				c0.4,1.4,0.8,3.2,1,5.2h-25.8c0.1,3,0.6,5.5,1.5,7.5c0.9,2,2.1,3.7,3.5,4.9c1.4,1.3,3,2.1,4.6,2.7c1.6,0.5,3.2,0.8,4.6,0.8
				C483.5,66.1,486.7,64.8,489.7,62.2z M466.3,39c-5.3,4.2-8,9.7-8,16.5c0,4.9,1.6,9,4.8,12.1c3.2,3.1,6.8,4.7,11,4.7
				c2.4,0,4.8-0.5,7.3-1.5c2.4-1,4.5-2.4,6.2-4.4c-1.7,1.1-3.5,2-5.3,2.7c-1.8,0.7-4,1-6.5,1c-4.2,0-7.8-1.5-10.6-4.4
				c-2.8-3-4.2-6.8-4.2-11.6c0-3,0.5-5.7,1.4-8.1C463.2,43.9,464.6,41.5,466.3,39z M465.9,47.4h14.9V46c0-1.6-0.3-3.1-0.9-4.4
				c-0.6-1.3-1.4-2.3-2.5-3c-1-0.7-2.2-1-3.6-1c-2.2,0-4,1-5.5,2.9C466.9,42.4,466.1,44.7,465.9,47.4z M482.2,47.4h3
				c-0.1-3.2-0.7-5.5-2-7.1c-1.2-1.5-3.3-2.5-6.1-3.1c1.8,0.8,3.1,1.9,3.9,3.2c0.8,1.3,1.2,3.3,1.2,6V47.4z"/>
		</g>
		<g>
			<path class="st0" d="M224,45.8v4.1c1.7-1.3,3.3-2.4,4.8-3.1c1.5-0.7,3.2-1.1,5.3-1.1c5.8,0,8.8,2.9,8.8,8.7v14.1
				c0,1.3,0.3,2.2,1,2.5c0.6,0.4,1.6,0.5,2.9,0.5v1.7h-14.9v-1.7c1.3,0,2.3-0.2,2.9-0.6c0.6-0.4,0.9-1.3,0.9-2.7v-15
				c0-1.1-0.2-2-0.5-2.8c-0.3-0.8-0.8-1.3-1.5-1.7c-0.7-0.4-1.5-0.6-2.4-0.6c-1.2,0-2.3,0.3-3.5,0.9c-1.1,0.6-2.4,1.5-3.7,2.8v16.4
				c0,0.9,0.2,1.6,0.5,2.1c0.3,0.5,0.7,0.8,1.3,0.9c0.5,0.1,1.3,0.2,2.3,0.2v1.7h-15v-1.7c1.3,0,2.2-0.2,2.9-0.5
				c0.7-0.3,1-1.1,1-2.3V55.1c0-1.4-0.3-2.5-0.9-3.3c-0.6-0.8-1.6-1.5-3-1.9v-1l9.8-3.1H224z M218,54.1v14.2c0,0.9-0.1,1.6-0.2,2
				c-0.1,0.4-0.4,0.9-0.9,1.4c2-0.2,3-1.3,3-3.4V53.6c0-1-0.4-1.9-1.1-2.6c-0.7-0.7-1.6-1.1-2.6-1.1c-0.1,0-0.3,0-0.6,0.1
				c-0.3,0-0.4,0.1-0.5,0.1C217.1,50.8,218,52.2,218,54.1z M236.6,53.1v15.3c0,0.6,0,1.1,0,1.4c0,0.3-0.1,0.6-0.2,0.9
				c-0.1,0.3-0.4,0.6-0.8,1h0.6c1.1,0,1.8-0.4,2.1-1.2c0.3-0.8,0.5-2,0.5-3.6V53.2c0-1.8-0.4-3.1-1.2-4.1c-0.8-0.9-2.2-1.4-4.2-1.5
				c1.1,0.5,1.9,1.1,2.4,2C236.4,50.5,236.6,51.7,236.6,53.1z"/>
		</g>
		<g>
			<path class="st0" d="M207.4,27.8v2c-1.3,0.6-2.3,1.3-3,2.2c-0.7,0.9-1,1.9-1,3c0,1,0.4,2,1.2,3.1c0.8,1,1.7,2.1,2.5,3.1
				c0.8,1,1.2,2.1,1.2,3.1c0,1-0.4,1.8-1.1,2.4c-0.8,0.6-1.6,0.9-2.6,0.9c-1.4,0-2.8-0.8-4-2.3c-1.2-1.5-1.8-3.4-1.8-5.7
				c0-2.7,0.8-5,2.3-7.1C202.6,30.5,204.7,28.9,207.4,27.8z M203.1,31.6c-1.1,1.3-2,2.5-2.5,3.7c-0.6,1.2-0.8,2.6-0.8,4.4
				c0,1.2,0.2,2.3,0.7,3.4c0.5,1,1.1,1.9,1.8,2.5c0.8,0.6,1.5,1,2.4,1c1.1,0,1.9-0.5,2.3-1.5c-0.2,0.1-0.4,0.1-0.7,0.1
				c-1.5,0-2.6-0.7-3.6-2.1c-0.9-1.4-1.4-3.1-1.4-5.2C201.3,36,201.9,33.9,203.1,31.6z"/>
		</g>
		<g>
			<path class="st0" d="M248.8,48.1v-2c1.3-0.6,2.3-1.3,3-2.2c0.7-0.9,1-1.9,1-3c0-1-0.4-2-1.2-3.1c-0.8-1-1.7-2.1-2.5-3.1
				c-0.8-1-1.2-2.1-1.2-3.1c0-1,0.4-1.8,1.1-2.4c0.7-0.6,1.6-0.9,2.6-0.9c1.4,0,2.8,0.8,4,2.3c1.2,1.5,1.8,3.4,1.8,5.7
				c0,2.7-0.8,5-2.3,7.1C253.5,45.4,251.4,47,248.8,48.1z M253,44.3c1.1-1.3,1.9-2.5,2.5-3.7c0.6-1.2,0.8-2.6,0.8-4.4
				c0-1.2-0.2-2.3-0.7-3.4c-0.5-1-1.1-1.9-1.8-2.5c-0.7-0.6-1.5-1-2.4-1c-1.1,0-1.9,0.5-2.3,1.5c0.2-0.1,0.4-0.1,0.7-0.1
				c1.5,0,2.6,0.7,3.6,2.1c0.9,1.4,1.4,3.2,1.4,5.2C254.8,39.9,254.2,42,253,44.3z"/>
		</g>
	</g>
	<g>
		<path class="st0" d="M108.2,111.4v8.6c0,0.8,0.1,1.4,0.4,1.9c0.2,0.4,0.6,0.7,1,0.9c0.4,0.2,1,0.3,1.7,0.4c0.7,0,1.4,0.1,2.1,0.1
			v1.1H98.6v-1.1c1.1,0,1.9-0.1,2.5-0.2c0.5-0.1,1-0.3,1.3-0.5c0.3-0.3,0.5-0.6,0.6-1c0.1-0.4,0.2-1,0.2-1.8v-17.9
			c0-1.5-0.1-2.5-0.2-3.2c-0.1-0.6-0.5-1.1-1.2-1.4c-0.6-0.3-1.7-0.4-3.2-0.4v-1.1h14c0.6,0,2.1,0.1,4.5,0.3
			c0.8,0.1,1.6,0.3,2.4,0.7c0.9,0.4,1.7,0.9,2.4,1.5c0.8,0.7,1.4,1.4,1.8,2.3c0.5,0.9,0.7,1.9,0.7,2.9c0,1.2-0.2,2.2-0.7,3.2
			c-0.5,0.9-1.2,1.8-2.1,2.5c-1,0.7-2.2,1.2-3.7,1.6c-1.5,0.4-3.2,0.6-5.1,0.6H108.2z M108.2,110.2h2.8c1.7,0,3.1-0.2,4.3-0.6
			c1.1-0.4,2-1.1,2.6-2.1c0.6-1,0.9-2.3,0.9-3.9c0-2.5-0.8-4.3-2.5-5.6c-0.7-0.5-1.3-0.8-2-1c-0.7-0.1-1.5-0.2-2.5-0.2
			c-1.1,0-2,0.2-2.5,0.5c-0.5,0.3-0.8,0.8-1,1.5c-0.1,0.6-0.2,1.6-0.2,2.9V110.2z"/>
		<path class="st0" d="M139,107.8v-1.2h7.3v13.8c0,0.5,0.1,1,0.3,1.2c0.2,0.3,0.5,0.4,0.8,0.5c0.4,0.1,0.8,0.1,1.5,0.1h0.2v1.2
			l-7.4,1.4v-2.8c-2.2,1.9-4.4,2.8-6.7,2.8c-1.7,0-3.1-0.5-4.1-1.5c-1-1-1.5-2.5-1.5-4.4v-7.1c0-1.1,0-1.8-0.1-2.2
			c-0.1-0.4-0.3-0.8-0.7-1.2c-0.4-0.3-1-0.6-1.9-0.7v-1.2h7.4v12c0,1,0.1,1.9,0.3,2.5c0.2,0.6,0.5,1.1,0.9,1.4
			c0.4,0.3,1,0.5,1.7,0.5c1.5,0,3.1-0.7,4.8-2.2v-9.7C141.6,109,140.7,107.9,139,107.8z"/>
		<path class="st0" d="M150.1,97.2l6.7-2.2h0.8v13.1c1.1-0.6,2.1-1.1,3-1.4c0.9-0.3,1.9-0.5,3-0.5c1.1,0,2.1,0.2,3.1,0.6
			c1,0.4,1.8,1,2.5,1.8c0.7,0.8,1.2,1.7,1.6,2.8c0.4,1.1,0.6,2.3,0.6,3.5c0,1.3-0.2,2.6-0.6,3.7c-0.4,1.2-1,2.2-1.8,3.2
			c-0.8,0.9-1.7,1.7-2.9,2.2c-1.1,0.5-2.3,0.8-3.6,0.8c-1.8,0-3.8-0.6-5.9-1.9l-3.1,1.8H153v-23.1c0-1.9-1-3.1-2.9-3.6V97.2z
			 M157.6,109.6v7.9c0,1.8,0.3,3.3,1,4.4c0.6,1.1,1.6,1.7,2.9,1.7c1,0,1.8-0.3,2.6-1c0.7-0.7,1.3-1.6,1.8-2.9
			c0.4-1.3,0.6-2.8,0.6-4.5c0-1.5-0.2-2.8-0.6-3.9c-0.4-1.1-1-1.9-1.7-2.5c-0.7-0.5-1.5-0.8-2.4-0.8c-0.5,0-1.2,0.2-2.1,0.5
			C158.8,108.9,158.1,109.2,157.6,109.6z"/>
		<path class="st0" d="M196,123.2v1.1h-9.9v-1.1c0.5,0,0.9-0.1,1.2-0.1c0.3,0,0.5-0.1,0.7-0.3c0.2-0.1,0.4-0.4,0.5-0.7
			c0.1-0.3,0.2-0.7,0.2-1.2v-9.5c0-1.3-0.3-2.2-0.9-2.8c-0.6-0.6-1.3-0.9-2-0.9c-1.3,0-2.9,0.8-4.8,2.5v10.9c0,0.8,0.2,1.3,0.6,1.6
			c0.4,0.3,1.1,0.4,2.2,0.5v1.1h-10v-1.1c0.9,0,1.6-0.1,2-0.3c0.4-0.2,0.6-0.7,0.6-1.4v-19.8c0-1.9-1-3-2.9-3.5v-0.8l6.7-2.1h0.8
			v13.7c1-0.9,2-1.5,3.2-2c1.1-0.5,2.3-0.7,3.4-0.7c1.2,0,2.2,0.2,3.1,0.6c0.9,0.4,1.5,1,2,1.9c0.5,0.8,0.7,1.9,0.7,3.1v8.4
			c0,0.8,0,1.4,0.1,1.7c0,0.3,0.2,0.6,0.5,0.9c0.3,0.2,0.8,0.4,1.6,0.4H196z"/>
		<path class="st0" d="M197.8,115.6c0-1.7,0.4-3.3,1.2-4.7c0.8-1.4,1.9-2.6,3.3-3.4c1.4-0.8,3-1.2,4.7-1.2c1.7,0,3.2,0.4,4.6,1.2
			c1.4,0.8,2.5,1.9,3.3,3.3c0.8,1.4,1.2,3,1.2,4.7c0,1.3-0.2,2.6-0.7,3.7c-0.5,1.2-1.1,2.2-2,3c-0.8,0.8-1.8,1.5-2.9,2
			c-1.1,0.5-2.3,0.7-3.5,0.7c-1.7,0-3.2-0.4-4.6-1.2c-1.4-0.8-2.5-1.9-3.3-3.3C198.2,119.1,197.8,117.4,197.8,115.6z M202.8,114.5
			c0,2.9,0.4,5.1,1.3,6.8c0.8,1.6,1.9,2.5,3.3,2.5c0.7,0,1.3-0.3,1.9-0.8c0.6-0.6,1-1.4,1.4-2.5c0.3-1.1,0.5-2.5,0.5-4
			c0-2.8-0.4-5-1.1-6.6c-0.8-1.6-1.8-2.4-3.1-2.4c-1.3,0-2.3,0.6-3,1.8C203.2,110.4,202.8,112.1,202.8,114.5z"/>
		<path class="st0" d="M230.3,107.8v-1.2h7.3v13.8c0,0.5,0.1,1,0.3,1.2c0.2,0.3,0.5,0.4,0.8,0.5c0.4,0.1,0.8,0.1,1.4,0.1h0.2v1.2
			l-7.4,1.4v-2.8c-2.2,1.9-4.4,2.8-6.7,2.8c-1.7,0-3.1-0.5-4.1-1.5c-1-1-1.5-2.5-1.5-4.4v-7.1c0-1.1,0-1.8-0.1-2.2
			c-0.1-0.4-0.3-0.8-0.7-1.2c-0.4-0.3-1-0.6-1.9-0.7v-1.2h7.4v12c0,1,0.1,1.9,0.3,2.5c0.2,0.6,0.5,1.1,0.9,1.4
			c0.4,0.3,1,0.5,1.7,0.5c1.5,0,3.1-0.7,4.8-2.2v-9.7C232.9,109,232,107.9,230.3,107.8z"/>
		<path class="st0" d="M242.4,123.4v-5.3h1.1c1,1.8,2.1,3.2,3.2,4.1c1.1,0.9,2.2,1.4,3.3,1.4c0.7,0,1.3-0.2,1.8-0.7
			c0.5-0.4,0.8-1,0.8-1.5c0-0.7-0.2-1.3-0.6-1.5c-1.5-1-3-1.8-4.4-2.3c-3.7-1.4-5.6-3.3-5.6-5.9c0-1.5,0.6-2.8,1.7-3.8
			c1.2-1,2.7-1.5,4.7-1.5c1,0,1.9,0.1,2.8,0.3c0.9,0.2,1.8,0.5,2.9,0.9l0.2,4.8h-1c-1.1-1.6-2.2-2.8-3.3-3.7
			c-1.1-0.8-2.1-1.2-3.2-1.2c-0.6,0-1.2,0.2-1.6,0.6c-0.4,0.4-0.6,0.9-0.6,1.4c0,0.7,0.3,1.2,0.8,1.6c0.5,0.4,1.6,1,3.3,1.7
			c1.7,0.8,3.2,1.5,4.4,2.2c0.8,0.4,1.4,1,1.9,1.8c0.5,0.8,0.7,1.6,0.7,2.5c0,1-0.3,2-0.9,2.9c-0.6,0.9-1.4,1.6-2.5,2.1
			c-1.1,0.5-2.3,0.8-3.6,0.8C247.1,124.9,244.9,124.4,242.4,123.4z"/>
		<path class="st0" d="M273.6,119.3l0.8,0.6c-0.6,1.1-1.3,2.1-2.2,2.8c-0.8,0.7-1.8,1.3-2.8,1.6c-1,0.4-2.1,0.5-3.2,0.5
			c-1.5,0-2.9-0.4-4.1-1.1c-1.3-0.7-2.3-1.8-3-3.1c-0.7-1.4-1.1-2.9-1.1-4.6c0-1.4,0.2-2.6,0.7-3.8c0.5-1.2,1.1-2.2,1.9-3.1
			c0.8-0.9,1.7-1.6,2.8-2.1c1.1-0.5,2.2-0.8,3.4-0.8c1.2,0,2.4,0.2,3.5,0.8c1.1,0.5,2,1.2,2.6,2.1c0.5,0.6,0.8,1.3,1,2
			c0.2,0.7,0.4,1.5,0.5,2.5h-12.3c0.1,1.4,0.3,2.6,0.7,3.6c0.4,1,1,1.8,1.7,2.4c0.7,0.6,1.4,1,2.2,1.3c0.8,0.3,1.5,0.4,2.2,0.4
			C270.7,121.2,272.2,120.6,273.6,119.3z M262.3,112.3h7.1v-0.7c0-0.8-0.1-1.5-0.4-2.1c-0.3-0.6-0.7-1.1-1.2-1.4
			c-0.5-0.3-1.1-0.5-1.7-0.5c-1,0-1.9,0.5-2.6,1.4C262.8,109.9,262.4,111,262.3,112.3z"/>
		<path class="st0" d="M294.1,124.9c-1.4,0-2.6-0.3-3.7-1c-1.1-0.6-1.9-1.5-2.5-2.6c-0.6-1.1-0.9-2.2-0.9-3.4c0-0.9,0.1-1.7,0.4-2.4
			c0.3-0.8,0.7-1.5,1.3-2.1c0.5-0.7,1.2-1.4,2.1-2.2c1.2-1.1,2.3-2,3.5-2.8c-2.2-2.4-3.3-4.3-3.3-5.7c0-0.7,0.3-1.4,0.8-2.3
			c0.5-0.8,1.2-1.7,2.1-2.5c0.9-0.8,1.8-1.5,2.7-2c1-0.5,1.9-0.8,2.7-0.8c0.7,0,1.4,0.2,2,0.5c0.6,0.3,1.1,0.7,1.5,1.2
			c0.4,0.5,0.8,1.1,1,1.6c0.2,0.6,0.4,1.1,0.4,1.6c0,0.7-0.2,1.4-0.7,2c-0.5,0.7-1,1.2-1.6,1.7c-0.6,0.5-1.6,1.3-3.1,2.3
			c1.6,1.8,2.9,3.4,4.1,4.9c1.1,1.5,2.1,2.9,2.9,4.2c1-1.3,1.8-2.4,2.3-3.5c0.5-1,0.8-1.8,0.8-2.4c0-0.7-0.3-1.2-0.8-1.7
			c-0.5-0.5-1.3-0.7-2.2-0.7v-1.1h9.8v1.1c-1,0.1-1.9,0.6-2.8,1.3c-0.9,0.8-1.8,1.7-2.6,2.9c-0.9,1.2-2,2.9-3.5,5.1l1.3,1.9
			c0.9,1.3,1.5,2.2,2,2.6c0.5,0.4,1,0.7,1.6,0.7c1.1,0,2-0.8,2.9-2.5l1,0.5c-0.5,1.2-1.1,2.2-1.7,3c-0.6,0.8-1.3,1.3-2.1,1.7
			c-0.7,0.4-1.5,0.6-2.4,0.6c-1.1,0-2.1-0.4-3.1-1.2c-1-0.8-2-1.9-2.8-3.3c-1.4,1.5-3,2.6-4.6,3.4
			C297.1,124.5,295.5,124.9,294.1,124.9z M302.7,119.3c-0.3-0.4-0.8-1.2-1.4-2.2c-0.7-1-1.3-1.9-1.8-2.6c-0.5-0.7-1.2-1.6-2-2.5
			c-0.8-1-1.6-1.9-2.4-2.7c-1.3,1.1-2.3,2.2-2.9,3.1c-0.6,0.9-0.9,1.9-0.9,3c0,1.1,0.3,2.1,0.9,3.1c0.6,1,1.4,1.8,2.3,2.5
			c1,0.6,2,0.9,3.1,0.9C299.5,121.9,301.1,121,302.7,119.3z M298,105.3c1.6-1.2,2.5-2.2,2.5-3.2c0-0.5-0.2-1-0.6-1.7
			c-0.4-0.7-0.9-1.3-1.6-1.8c-0.6-0.5-1.2-0.8-1.7-0.8c-0.6,0-1.2,0.2-1.7,0.7c-0.5,0.5-0.7,1-0.7,1.5c0,0.4,0.1,0.8,0.3,1.1
			c0.2,0.4,0.5,0.8,1,1.3c0.4,0.5,0.9,1,1.3,1.3C297.1,104.3,297.5,104.8,298,105.3z"/>
		<path class="st0" d="M354.3,95.4l0.3,8.9h-1.1c-0.6-1.3-1.3-2.4-2.1-3.4c-0.8-1-1.6-1.8-2.4-2.5c-0.8-0.6-1.7-1.1-2.6-1.4
			c-0.9-0.3-1.9-0.5-2.9-0.5c-1.9,0-3.5,0.6-5,1.7c-1.5,1.1-2.6,2.7-3.4,4.8c-0.8,2-1.2,4.4-1.2,7c0,2.6,0.4,5,1.3,7
			c0.9,2.1,2.1,3.6,3.6,4.8c1.5,1.1,3.1,1.7,4.9,1.7c1,0,2-0.2,2.9-0.6c0.9-0.4,1.6-0.9,2-1.6c0.4-0.5,0.6-1,0.7-1.6
			c0.1-0.6,0.2-1.3,0.2-2.2c0-1.4-0.1-2.3-0.2-2.9s-0.5-0.9-1-1.2c-0.5-0.2-1.5-0.4-2.8-0.5v-1.2h13.2v1.2c-1.3,0.1-2.3,0.3-2.8,0.5
			c-0.5,0.2-0.9,0.6-1.1,1.1c-0.2,0.6-0.3,1.5-0.3,2.8v4.5c-1.1,0.6-2.3,1.1-3.6,1.5c-1.3,0.4-2.6,0.8-3.9,1
			c-1.3,0.2-2.6,0.4-3.9,0.4c-2.4,0-4.5-0.4-6.4-1.1c-1.9-0.8-3.5-1.8-4.8-3.2c-1.3-1.4-2.3-2.9-2.9-4.7c-0.7-1.8-1-3.7-1-5.6
			c0-1.9,0.3-3.8,1-5.6c0.7-1.8,1.6-3.4,2.8-4.9c1.2-1.4,2.7-2.5,4.4-3.3c1.7-0.8,3.6-1.2,5.7-1.2c1.4,0,3,0.2,4.8,0.6
			c1.8,0.4,3,0.6,3.4,0.6c1.3,0,2.1-0.3,2.6-1H354.3z"/>
		<path class="st0" d="M367.7,106.3v3.1c1-1.2,1.8-2,2.4-2.4c0.6-0.5,1.2-0.7,2-0.7c0.7,0,1.2,0.2,1.7,0.7c0.5,0.5,0.7,1.1,0.7,1.8
			c0,0.8-0.2,1.4-0.6,1.9c-0.4,0.5-0.9,0.8-1.6,0.8c-0.3,0-0.6-0.1-0.9-0.2c-0.3-0.1-0.6-0.3-0.8-0.4c-0.1-0.1-0.3-0.2-0.4-0.3
			c-0.1-0.1-0.3-0.2-0.4-0.3c-0.1-0.1-0.2-0.1-0.4-0.1c-0.3,0-0.5,0.1-0.8,0.3c-0.2,0.2-0.5,0.5-0.9,0.8v9.8c0,0.7,0.1,1.2,0.3,1.5
			c0.2,0.3,0.5,0.5,0.9,0.6c0.4,0.1,1.1,0.1,2.2,0.1v1.1h-10.9v-1.1h0.5c1.6,0,2.4-0.6,2.4-1.9v-9.1c0-1.6-1-2.6-2.9-3.2v-0.7
			l6.5-2.1H367.7z"/>
		<path class="st0" d="M382.9,106.3V121c0,0.6,0.1,1.1,0.2,1.4c0.1,0.3,0.4,0.5,0.7,0.7c0.4,0.1,0.9,0.2,1.7,0.2v1.1H376v-1.1
			c0.8,0,1.4-0.2,1.8-0.5c0.3-0.3,0.5-0.9,0.5-1.7v-9.3c0-0.6-0.2-1.1-0.6-1.6c-0.4-0.5-0.9-0.9-1.7-1.1v-0.6l6.1-2.1H382.9z
			 M380.4,96.4c0.5,0,1,0.1,1.4,0.4c0.4,0.2,0.8,0.6,1.1,1c0.3,0.4,0.4,0.9,0.4,1.4c0,0.5-0.1,1-0.4,1.4c-0.3,0.4-0.6,0.8-1.1,1
			c-0.4,0.3-0.9,0.4-1.4,0.4c-0.8,0-1.4-0.3-2-0.9c-0.6-0.6-0.8-1.2-0.8-2c0-0.5,0.1-1,0.4-1.4c0.2-0.4,0.6-0.8,1-1
			C379.4,96.5,379.9,96.4,380.4,96.4z"/>
		<path class="st0" d="M389.6,121.2V102c0-1-0.2-1.8-0.5-2.4c-0.3-0.6-1.1-1.1-2.2-1.5v-0.8l6.6-2.2h0.8v25.4c0,1.1,0.1,1.8,0.4,2.2
			c0.2,0.4,0.8,0.6,1.8,0.6h0.5v1.1h-10.1v-1.1h0.5c0.8,0,1.4-0.2,1.7-0.5C389.4,122.4,389.6,121.9,389.6,121.2z"/>
		<path class="st0" d="M400.8,121.2V102c0-1-0.2-1.8-0.5-2.4c-0.3-0.6-1.1-1.1-2.2-1.5v-0.8l6.6-2.2h0.8v25.4c0,1.1,0.1,1.8,0.4,2.2
			c0.2,0.4,0.8,0.6,1.8,0.6h0.5v1.1h-10.1v-1.1h0.5c0.8,0,1.4-0.2,1.7-0.5C400.7,122.4,400.8,121.9,400.8,121.2z"/>
	</g>
</g>
</svg>
